<svg width="21" height="21" viewBox="0 0 21 21" fill="none" xmlns="http://www.w3.org/2000/svg">
<path d="M10.4776 7.78613C9.68109 7.78613 8.91725 8.1022 8.35406 8.66481C7.79087 9.22742 7.47448 9.99048 7.47448 10.7861C7.47448 11.5818 7.79087 12.3448 8.35406 12.9075C8.91725 13.4701 9.68109 13.7861 10.4776 13.7861C11.274 13.7861 12.0379 13.4701 12.6011 12.9075C13.1642 12.3448 13.4806 11.5818 13.4806 10.7861C13.4806 9.99048 13.1642 9.22742 12.6011 8.66481C12.0379 8.1022 11.274 7.78613 10.4776 7.78613ZM10.4776 5.78613C11.805 5.78613 13.0781 6.31292 14.0167 7.2506C14.9554 8.18828 15.4827 9.46005 15.4827 10.7861C15.4827 12.1122 14.9554 13.384 14.0167 14.3217C13.0781 15.2593 11.805 15.7861 10.4776 15.7861C9.15012 15.7861 7.87704 15.2593 6.93839 14.3217C5.99975 13.384 5.47242 12.1122 5.47242 10.7861C5.47242 9.46005 5.99975 8.18828 6.93839 7.2506C7.87704 6.31292 9.15012 5.78613 10.4776 5.78613ZM16.9842 5.53613C16.9842 5.86765 16.8524 6.1856 16.6177 6.42002C16.3831 6.65444 16.0648 6.78613 15.733 6.78613C15.4011 6.78613 15.0828 6.65444 14.8482 6.42002C14.6135 6.1856 14.4817 5.86765 14.4817 5.53613C14.4817 5.20461 14.6135 4.88667 14.8482 4.65225C15.0828 4.41783 15.4011 4.28613 15.733 4.28613C16.0648 4.28613 16.3831 4.41783 16.6177 4.65225C16.8524 4.88667 16.9842 5.20461 16.9842 5.53613ZM10.4776 2.78613C8.00102 2.78613 7.5966 2.79313 6.44442 2.84413C5.65962 2.88113 5.13307 2.98613 4.64457 3.17613C4.21013 3.34413 3.89681 3.54513 3.56346 3.87913C3.25015 4.18153 3.00925 4.55072 2.85874 4.95913C2.66854 5.44913 2.56344 5.97413 2.5274 6.75713C2.47535 7.86113 2.46934 8.24713 2.46934 10.7861C2.46934 13.2601 2.47635 13.6641 2.5274 14.8151C2.56444 15.5981 2.66955 16.1251 2.85874 16.6121C3.02891 17.0471 3.22912 17.3601 3.56146 17.6921C3.89881 18.0281 4.21213 18.2291 4.64257 18.3951C5.13708 18.5861 5.66362 18.6921 6.44442 18.7281C7.54955 18.7801 7.93595 18.7861 10.4776 18.7861C12.9541 18.7861 13.3585 18.7791 14.5107 18.7281C15.2935 18.6911 15.821 18.5861 16.3095 18.3971C16.743 18.2281 17.0583 18.0271 17.3907 17.6951C17.728 17.3581 17.9292 17.0451 18.0954 16.6151C18.2856 16.1221 18.3917 15.5951 18.4277 14.8151C18.4798 13.7111 18.4858 13.3251 18.4858 10.7861C18.4858 8.31213 18.4788 7.90813 18.4277 6.75713C18.3907 5.97513 18.2856 5.44713 18.0954 4.95913C17.9445 4.55113 17.7041 4.18209 17.3917 3.87913C17.0891 3.56598 16.7195 3.3253 16.3105 3.17513C15.82 2.98513 15.2935 2.88013 14.5107 2.84413C13.4056 2.79213 13.0192 2.78613 10.4776 2.78613ZM10.4776 0.786133C13.1974 0.786133 13.5367 0.796133 14.6038 0.846133C15.6699 0.896133 16.3956 1.06313 17.0343 1.31113C17.695 1.56513 18.2515 1.90913 18.8081 2.46413C19.3171 2.96403 19.711 3.56872 19.9623 4.23613C20.2095 4.87313 20.3777 5.59913 20.4278 6.66413C20.4748 7.73013 20.4878 8.06913 20.4878 10.7861C20.4878 13.5031 20.4778 13.8421 20.4278 14.9081C20.3777 15.9731 20.2095 16.6981 19.9623 17.3361C19.7117 18.0039 19.3178 18.6087 18.8081 19.1081C18.3076 19.6165 17.7023 20.0099 17.0343 20.2611C16.3966 20.5081 15.6699 20.6761 14.6038 20.7261C13.5367 20.7731 13.1974 20.7861 10.4776 20.7861C7.75777 20.7861 7.41842 20.7761 6.35132 20.7261C5.28523 20.6761 4.55949 20.5081 3.92083 20.2611C3.25247 20.0106 2.64705 19.6171 2.14701 19.1081C1.63789 18.6083 1.24401 18.0036 0.992825 17.3361C0.74457 16.6991 0.577398 15.9731 0.527347 14.9081C0.480298 13.8421 0.467285 13.5031 0.467285 10.7861C0.467285 8.06913 0.477295 7.73013 0.527347 6.66413C0.577398 5.59813 0.74457 4.87413 0.992825 4.23613C1.24332 3.56831 1.63729 2.96345 2.14701 2.46413C2.64719 1.95536 3.25257 1.56186 3.92083 1.31113C4.55949 1.06313 5.28423 0.896133 6.35132 0.846133C7.41842 0.799133 7.75777 0.786133 10.4776 0.786133Z" fill="black"/>
</svg>
