<svg width="21" height="18" viewBox="0 0 21 18" fill="none" xmlns="http://www.w3.org/2000/svg">
<path d="M20.5554 2.44206C19.7911 2.77975 18.9807 3.00153 18.1509 3.10006C19.0255 2.57749 19.6802 1.75507 19.9928 0.786059C19.1719 1.27406 18.272 1.61606 17.334 1.80106C16.704 1.12764 15.8689 0.681023 14.9586 0.530644C14.0482 0.380266 13.1136 0.53455 12.3001 0.969512C11.4866 1.40447 10.8398 2.09574 10.4601 2.93585C10.0804 3.77596 9.98924 4.71784 10.2007 5.61506C8.5361 5.53171 6.90765 5.09958 5.42108 4.34672C3.9345 3.59386 2.62304 2.53711 1.57183 1.24506C1.19974 1.88351 1.0042 2.60929 1.00525 3.34806C1.00525 4.79806 1.74401 6.07906 2.86716 6.82906C2.20249 6.80816 1.55244 6.62884 0.971211 6.30606V6.35806C0.971411 7.32376 1.30592 8.25968 1.91803 9.00712C2.53014 9.75456 3.38217 10.2675 4.32967 10.4591C3.71265 10.6261 3.06567 10.6507 2.43772 10.5311C2.70486 11.3623 3.22554 12.0893 3.92684 12.6102C4.62815 13.1311 5.47497 13.4199 6.34874 13.4361C5.48033 14.1174 4.486 14.621 3.42261 14.9182C2.35922 15.2154 1.24762 15.3003 0.151367 15.1681C2.06503 16.3975 4.29273 17.0502 6.56797 17.0481C14.2689 17.0481 18.4802 10.6751 18.4802 5.14806C18.4802 4.96806 18.4752 4.78606 18.4672 4.60806C19.2869 4.01623 19.9944 3.28308 20.5564 2.44306L20.5554 2.44206Z" fill="black"/>
</svg>
