<?xml version="1.0" encoding="UTF-8"?> <svg xmlns="http://www.w3.org/2000/svg" width="19" height="19" viewBox="0 0 19 19" fill="none"><path d="M15.8037 15.7784H13.1388V11.6014C13.1388 10.6054 13.1187 9.32339 11.7487 9.32339C10.3597 9.32339 10.1477 10.4074 10.1477 11.5284V15.7784H7.48175V7.18939H10.0417V8.35939H10.0767C10.4347 7.68539 11.3047 6.97239 12.6047 6.97239C15.3047 6.97239 15.8048 8.75039 15.8048 11.0634V15.7784H15.8037ZM4.47175 6.01439C4.26831 6.01466 4.06681 5.97476 3.87881 5.897C3.69082 5.81923 3.52002 5.70513 3.37621 5.56123C3.2324 5.41732 3.1184 5.24645 3.04076 5.0584C2.96312 4.87036 2.92335 4.66884 2.92375 4.46539C2.92395 4.15923 3.01493 3.86 3.18519 3.60554C3.35545 3.35108 3.59734 3.15283 3.88028 3.03584C4.16322 2.91886 4.47449 2.88841 4.77473 2.94833C5.07497 3.00826 5.35071 3.15587 5.56706 3.3725C5.78341 3.58913 5.93066 3.86505 5.9902 4.16537C6.04974 4.46569 6.01888 4.77693 5.90153 5.05971C5.78418 5.34249 5.58562 5.58413 5.33094 5.75406C5.07626 5.92399 4.77692 6.01459 4.47075 6.01439H4.47175ZM5.80775 15.7784H3.13475V7.18939H5.80875V15.7784H5.80775ZM17.1388 0.439392H1.79775C1.06175 0.439392 0.46875 1.01939 0.46875 1.73639V17.1424C0.46875 17.8594 1.06275 18.4394 1.79675 18.4394H17.1348C17.8687 18.4394 18.4688 17.8594 18.4688 17.1424V1.73639C18.4688 1.01939 17.8687 0.439392 17.1348 0.439392H17.1378H17.1388Z" fill="#F9BC6E"></path></svg> 