<svg width="56" height="57" viewBox="0 0 56 57" fill="none" xmlns="http://www.w3.org/2000/svg">
<path d="M28.7945 35.1785L35.6289 28.3442C35.9594 28.0172 35.9594 27.4828 35.6289 27.1524L28.7945 20.3215C28.4676 19.991 27.9332 19.991 27.6027 20.3215L26.8222 21.102C26.4848 21.436 26.4918 21.9809 26.8363 22.3079L31.0726 26.3438H20.9687C20.5012 26.3438 20.125 26.72 20.125 27.1875V28.3125C20.125 28.7801 20.5012 29.1563 20.9687 29.1563H31.0726L26.8363 33.1922C26.4953 33.5191 26.4883 34.0641 26.8222 34.398L27.6027 35.1785C27.9297 35.509 28.464 35.509 28.7945 35.1785Z" fill="#F9BC6E"/>
</svg>
