<svg width="97" height="97" viewBox="0 0 97 97" fill="none" xmlns="http://www.w3.org/2000/svg">
<path d="M52.6876 49.2624V23.9345C52.6876 22.6168 51.6154 21.5443 50.2977 21.5443H42.5172V19.4199C42.5172 18.902 42.0976 18.4824 41.5797 18.4824H41.5058V18.1273C41.5058 15.3688 39.2618 13.1248 36.5033 13.1248H25.3287C22.5702 13.1248 20.3262 15.3688 20.3262 18.1273V18.4824H20.2144C19.6965 18.4824 19.2769 18.902 19.2769 19.4199V21.5443H11.5339C10.2162 21.5443 9.14404 22.6164 9.14404 23.9345V49.2624C9.14404 50.5801 10.2162 51.6526 11.5339 51.6526H50.2977C51.6154 51.6526 52.6876 50.5805 52.6876 49.2624ZM26.5936 21.5446V19.4203C26.5936 18.9024 26.1739 18.4828 25.656 18.4828H25.6099L25.6069 18.1786L36.2119 18.1659V18.4824H36.1381C35.6202 18.4824 35.2006 18.902 35.2006 19.4199V21.5443H26.5936V21.5446ZM37.0752 20.3578H40.6418V21.5446H37.0752V20.3578ZM22.2008 18.1276C22.2008 16.403 23.604 15.0001 25.3283 15.0001H36.5026C38.2272 15.0001 39.6301 16.4034 39.6301 18.1276V18.4828H38.0869V18.1663C38.0869 17.1395 37.2514 16.304 36.2247 16.304H25.6069C24.5802 16.304 23.7447 17.1395 23.7447 18.1663V18.4828H22.2012V18.1276H22.2008ZM21.1519 20.3578H24.7185V21.5446H21.1519V20.3578ZM11.0187 49.2624V43.6666H24.6762C25.1941 43.6666 25.6137 43.247 25.6137 42.7291C25.6137 42.2113 25.1941 41.7916 24.6762 41.7916H11.0187V23.9345C11.0187 23.6506 11.2497 23.4193 11.5335 23.4193H20.2144H25.656H36.1377H41.5793H50.2973C50.5812 23.4193 50.8122 23.6503 50.8122 23.9345V41.7913H37.1551C36.6372 41.7913 36.2176 42.2109 36.2176 42.7288C36.2176 43.2466 36.6372 43.6663 37.1551 43.6663H50.8122V49.2624C50.8122 49.5463 50.5812 49.7776 50.2973 49.7776H11.5339C11.25 49.7776 11.0187 49.5466 11.0187 49.2624V49.2624Z" fill="black"/>
<path d="M32.2989 38.988H29.5329C28.406 38.988 27.4888 39.9049 27.4888 41.0322V45.7347C27.4888 46.8615 28.4056 47.7784 29.5329 47.7784H32.2989C33.4258 47.7784 34.3426 46.8615 34.3426 45.7347V41.0322C34.3426 39.9049 33.4258 38.988 32.2989 38.988ZM32.4676 45.7343C32.4676 45.8273 32.3919 45.903 32.2989 45.903H29.5329C29.4395 45.903 29.3638 45.8273 29.3638 45.7343V41.0318C29.3638 40.9388 29.4395 40.8627 29.5329 40.8627H32.2989C32.3919 40.8627 32.4676 40.9384 32.4676 41.0318V45.7343Z" fill="black"/>
<path d="M85.7974 54.3231H78.0169V52.1987C78.0169 51.6808 77.5973 51.2612 77.0794 51.2612H77.0055V50.9061C77.0055 48.1476 74.7615 45.9036 72.003 45.9036H60.8288C58.0703 45.9036 55.8263 48.1476 55.8263 50.9061V51.2612H55.7149C55.197 51.2612 54.7774 51.6808 54.7774 52.1987V54.3231H47.0344C45.7167 54.3231 44.6445 55.3952 44.6445 56.7133V82.0412C44.6445 83.3589 45.7167 84.4314 47.0344 84.4314H85.7981C87.1159 84.4314 88.1884 83.3593 88.1884 82.0412V56.7129C88.1876 55.3952 87.1151 54.3231 85.7974 54.3231ZM62.0936 54.3231V52.1987C62.0936 51.6808 61.674 51.2612 61.1561 51.2612H61.11L61.107 50.9571L71.712 50.9443V51.2608H71.6381C71.1203 51.2608 70.7006 51.6804 70.7006 52.1983V54.3227H62.0936V54.3231ZM72.5753 53.1362H76.1419V54.3231H72.5753V53.1362ZM57.7009 50.9057C57.7009 49.1811 59.1042 47.7782 60.8284 47.7782H72.0026C73.7273 47.7782 75.1301 49.1811 75.1301 50.9057V51.2608H73.5866V50.9443C73.5866 49.9176 72.7511 49.0821 71.7244 49.0821H61.1066C60.0799 49.0821 59.2444 49.9176 59.2444 50.9443V51.2608H57.7005V50.9057H57.7009ZM56.6517 53.1362H60.2183V54.3231H56.6517V53.1362ZM85.7974 82.556H47.0337C46.7498 82.556 46.5188 82.325 46.5188 82.0408V76.4447H60.1763C60.6941 76.4447 61.1138 76.025 61.1138 75.5072C61.1138 74.9893 60.6941 74.5697 60.1763 74.5697H46.5188V56.7129C46.5188 56.4291 46.7498 56.1977 47.0337 56.1977H55.7142H61.1558H71.6378H77.0794H85.7974C86.0813 56.1977 86.3126 56.4287 86.3126 56.7129V74.5697H72.6551C72.1373 74.5697 71.7176 74.9893 71.7176 75.5072C71.7176 76.025 72.1373 76.4447 72.6551 76.4447H86.3126V82.0408C86.3126 82.3247 86.0813 82.556 85.7974 82.556V82.556Z" fill="black"/>
<path d="M67.7985 71.7661H65.0325C63.9056 71.7661 62.9888 72.683 62.9888 73.8102V78.5127C62.9888 79.6396 63.9056 80.5565 65.0325 80.5565H67.7985C68.9254 80.5565 69.8423 79.6396 69.8423 78.5127V73.8102C69.8426 72.6834 68.9258 71.7661 67.7985 71.7661ZM67.9676 78.5124C67.9676 78.6054 67.8919 78.6811 67.7989 78.6811H65.0329C64.9399 78.6811 64.8641 78.6054 64.8641 78.5124V73.8099C64.8641 73.7165 64.9399 73.6407 65.0329 73.6407H67.7989C67.8919 73.6407 67.9676 73.7165 67.9676 73.8099V78.5124Z" fill="black"/>
<path d="M70.6484 38.5008C70.2824 38.1348 69.6884 38.1348 69.3228 38.5008L67.4759 40.3472V37.4631C67.4759 33.7068 64.4201 30.6509 60.6633 30.6509H55.6226C55.1047 30.6509 54.6851 31.0705 54.6851 31.5884C54.6851 32.1063 55.1047 32.5259 55.6226 32.5259H60.6633C63.3858 32.5259 65.6009 34.7406 65.6009 37.4631V40.3472L63.7544 38.5008C63.3884 38.1348 62.7948 38.1348 62.4288 38.5008C62.0624 38.8668 62.0624 39.4604 62.4288 39.8264L65.8747 43.2723C65.9186 43.3161 65.9669 43.3555 66.0187 43.39C66.0408 43.405 66.0652 43.4151 66.0884 43.4279C66.1188 43.4444 66.1477 43.4627 66.1799 43.4759C66.2103 43.4886 66.2422 43.4958 66.2737 43.5051C66.3007 43.513 66.3269 43.5235 66.3551 43.5291C66.4154 43.5411 66.4769 43.5475 66.5384 43.5475C66.5999 43.5475 66.6614 43.5411 66.7218 43.5291C66.7499 43.5235 66.7762 43.513 66.8032 43.5051C66.8347 43.4958 66.8662 43.4886 66.8966 43.4762C66.9288 43.4627 66.9581 43.4448 66.9884 43.4279C67.0117 43.4151 67.0357 43.405 67.0578 43.39C67.1096 43.3555 67.1579 43.3161 67.2018 43.2723L70.6481 39.8264C71.0144 39.4604 71.0145 38.8668 70.6484 38.5008Z" fill="#F9BC6E"/>
<path d="M41.7086 65.0305H36.6678C33.9453 65.0305 31.7306 62.8158 31.7306 60.0929V57.2088L33.5771 59.0553C33.7601 59.2383 34.0001 59.3298 34.2401 59.3298C34.4801 59.3298 34.7201 59.2383 34.9031 59.0553C35.2695 58.6893 35.2695 58.0956 34.9031 57.7296L31.4572 54.2838C31.4133 54.2399 31.365 54.2005 31.3132 54.166C31.2907 54.151 31.2667 54.1409 31.2435 54.1282C31.2131 54.1117 31.1842 54.0933 31.152 54.0802C31.1216 54.0674 31.0897 54.0603 31.0582 54.0513C31.0312 54.0434 31.005 54.0329 30.9772 54.0273C30.8561 54.0033 30.7312 54.0033 30.6101 54.0273C30.582 54.0329 30.5561 54.0434 30.5291 54.0513C30.4976 54.0607 30.4657 54.0678 30.4353 54.0802C30.4031 54.0933 30.3742 54.1117 30.3438 54.1282C30.3206 54.1409 30.2962 54.151 30.2737 54.166C30.222 54.2005 30.1736 54.2399 30.1297 54.2838L26.6835 57.7296C26.3171 58.0956 26.3171 58.6893 26.6835 59.0553C27.0495 59.4216 27.6435 59.4216 28.0091 59.0553L29.856 57.2088V60.0929C29.856 63.8493 32.9119 66.9055 36.6682 66.9055H41.709C42.2268 66.9055 42.6465 66.4859 42.6465 65.968C42.6461 65.4501 42.2265 65.0305 41.7086 65.0305Z" fill="#F9BC6E"/>
</svg>
