<svg width="76" height="56" viewBox="0 0 76 56" fill="none" xmlns="http://www.w3.org/2000/svg">
<path d="M74.7157 1.13475V5.28779H66.9297H66.5738L66.4573 5.62404L64.4393 11.446L64.4392 11.446L64.437 11.4527L53.7985 43.5898H7.31737L1.43812 8.74979H60.6547H61.0084L61.1262 8.4162L63.6964 1.13382L74.7157 1.13475ZM50.3507 39.4408H50.7091L50.8242 39.1014L59.5602 13.3384L59.7842 12.6778H59.0867H6.89468H6.3053L6.40137 13.2593L10.6574 39.0223L10.7265 39.4408H11.1507H50.3507Z" fill="black" stroke="#FAF6FF"/>
<path d="M20.2835 50.1378C20.2835 52.7071 18.2007 54.7898 15.6315 54.7898C13.0623 54.7898 10.9795 52.7071 10.9795 50.1378C10.9795 47.5686 13.0623 45.4858 15.6315 45.4858C18.2007 45.4858 20.2835 47.5686 20.2835 50.1378Z" fill="black" stroke="#FAF6FF"/>
<path d="M49.8509 50.1378C49.8509 52.7071 47.7681 54.7898 45.1989 54.7898C42.6296 54.7898 40.5469 52.7071 40.5469 50.1378C40.5469 47.5686 42.6296 45.4858 45.1989 45.4858C47.7681 45.4858 49.8509 47.5686 49.8509 50.1378Z" fill="black" stroke="#FAF6FF"/>
<path d="M29.5299 36.1087L19.9972 23.5337H24.5702L29.124 29.3897L29.5046 29.8791L29.9023 29.4034L41.1764 15.9177H45.7247L29.5299 36.1087Z" fill="#F9BC6E" stroke="white"/>
</svg>
