<svg width="80" height="72" viewBox="0 0 80 72" fill="none" xmlns="http://www.w3.org/2000/svg">
<path d="M43.6876 36.2624V10.9345C43.6876 9.61676 42.6154 8.54426 41.2977 8.54426H33.5172V6.41988C33.5172 5.90201 33.0976 5.48238 32.5797 5.48238H32.5058V5.12726C32.5058 2.36876 30.2618 0.124756 27.5033 0.124756H16.3287C13.5702 0.124756 11.3262 2.36876 11.3262 5.12726V5.48238H11.2144C10.6965 5.48238 10.2769 5.90201 10.2769 6.41988V8.54426H2.53392C1.21617 8.54426 0.144043 9.61638 0.144043 10.9345V36.2624C0.144043 37.5801 1.21617 38.6526 2.53392 38.6526H41.2977C42.6154 38.6526 43.6876 37.5805 43.6876 36.2624ZM17.5935 8.54463V6.42026C17.5935 5.90238 17.1739 5.48276 16.656 5.48276H16.6099L16.6069 5.17863L27.2119 5.16588V5.48238H27.1381C26.6202 5.48238 26.2006 5.90201 26.2006 6.41988V8.54426H17.5935V8.54463ZM28.0752 7.35776H31.6418V8.54463H28.0752V7.35776ZM13.2008 5.12763C13.2008 3.40301 14.604 2.00013 16.3283 2.00013H27.5026C29.2272 2.00013 30.6301 3.40338 30.6301 5.12763V5.48276H29.0869V5.16626C29.0869 4.13951 28.2514 3.30401 27.2247 3.30401H16.6069C15.5802 3.30401 14.7447 4.13951 14.7447 5.16626V5.48276H13.2012V5.12763H13.2008ZM12.1519 7.35776H15.7185V8.54463H12.1519V7.35776ZM2.01867 36.2624V30.6666H15.6762C16.194 30.6666 16.6137 30.247 16.6137 29.7291C16.6137 29.2113 16.194 28.7916 15.6762 28.7916H2.01867V10.9345C2.01867 10.6506 2.24967 10.4193 2.53354 10.4193H11.2144H16.656H27.1377H32.5793H41.2973C41.5812 10.4193 41.8122 10.6503 41.8122 10.9345V28.7913H28.1551C27.6372 28.7913 27.2176 29.2109 27.2176 29.7288C27.2176 30.2466 27.6372 30.6663 28.1551 30.6663H41.8122V36.2624C41.8122 36.5463 41.5812 36.7776 41.2973 36.7776H2.53392C2.25004 36.7776 2.01867 36.5466 2.01867 36.2624Z" fill="black"/>
<path d="M23.2989 25.988H20.5329C19.406 25.988 18.4888 26.9049 18.4888 28.0322V32.7347C18.4888 33.8615 19.4056 34.7784 20.5329 34.7784H23.2989C24.4258 34.7784 25.3426 33.8615 25.3426 32.7347V28.0322C25.3426 26.9049 24.4258 25.988 23.2989 25.988ZM23.4676 32.7343C23.4676 32.8273 23.3919 32.903 23.2989 32.903H20.5329C20.4395 32.903 20.3638 32.8273 20.3638 32.7343V28.0318C20.3638 27.9388 20.4395 27.8627 20.5329 27.8627H23.2989C23.3919 27.8627 23.4676 27.9384 23.4676 28.0318V32.7343Z" fill="black"/>
<path d="M76.7974 41.3231H69.0169V39.1987C69.0169 38.6808 68.5973 38.2612 68.0794 38.2612H68.0055V37.9061C68.0055 35.1476 65.7615 32.9036 63.003 32.9036H51.8288C49.0703 32.9036 46.8263 35.1476 46.8263 37.9061V38.2612H46.7149C46.197 38.2612 45.7774 38.6808 45.7774 39.1987V41.3231H38.0344C36.7167 41.3231 35.6445 42.3952 35.6445 43.7133V69.0412C35.6445 70.3589 36.7167 71.4314 38.0344 71.4314H76.7981C78.1159 71.4314 79.1884 70.3593 79.1884 69.0412V43.7129C79.1876 42.3952 78.1151 41.3231 76.7974 41.3231ZM53.0936 41.3231V39.1987C53.0936 38.6808 52.674 38.2612 52.1561 38.2612H52.11L52.107 37.9571L62.712 37.9443V38.2608H62.6381C62.1203 38.2608 61.7006 38.6804 61.7006 39.1983V41.3227H53.0936V41.3231ZM63.5753 40.1362H67.1419V41.3231H63.5753V40.1362ZM48.7009 37.9057C48.7009 36.1811 50.1041 34.7782 51.8284 34.7782H63.0026C64.7273 34.7782 66.1301 36.1811 66.1301 37.9057V38.2608H64.5866V37.9443C64.5866 36.9176 63.7511 36.0821 62.7244 36.0821H52.1066C51.0799 36.0821 50.2444 36.9176 50.2444 37.9443V38.2608H48.7005V37.9057H48.7009ZM47.6517 40.1362H51.2183V41.3231H47.6517V40.1362ZM76.7974 69.556H38.0337C37.7498 69.556 37.5188 69.325 37.5188 69.0408V63.4447H51.1763C51.6941 63.4447 52.1138 63.025 52.1138 62.5072C52.1138 61.9893 51.6941 61.5697 51.1763 61.5697H37.5188V43.7129C37.5188 43.4291 37.7498 43.1977 38.0337 43.1977H46.7142H52.1558H62.6378H68.0794H76.7974C77.0813 43.1977 77.3126 43.4287 77.3126 43.7129V61.5697H63.6551C63.1373 61.5697 62.7176 61.9893 62.7176 62.5072C62.7176 63.025 63.1373 63.4447 63.6551 63.4447H77.3126V69.0408C77.3126 69.3247 77.0813 69.556 76.7974 69.556Z" fill="black"/>
<path d="M58.7985 58.7661H56.0325C54.9056 58.7661 53.9888 59.683 53.9888 60.8102V65.5127C53.9888 66.6396 54.9056 67.5565 56.0325 67.5565H58.7985C59.9254 67.5565 60.8423 66.6396 60.8423 65.5127V60.8102C60.8426 59.6834 59.9258 58.7661 58.7985 58.7661ZM58.9676 65.5124C58.9676 65.6054 58.8919 65.6811 58.7989 65.6811H56.0329C55.9399 65.6811 55.8641 65.6054 55.8641 65.5124V60.8099C55.8641 60.7165 55.9399 60.6407 56.0329 60.6407H58.7989C58.8919 60.6407 58.9676 60.7165 58.9676 60.8099V65.5124Z" fill="black"/>
</svg>
