<svg width="19" height="19" viewBox="0 0 19 19" fill="none" xmlns="http://www.w3.org/2000/svg">
<path d="M15.7717 16.1251H13.1039V11.9481C13.1039 10.9521 13.0839 9.67013 11.7125 9.67013C10.3221 9.67013 10.1099 10.7541 10.1099 11.8751V16.1251H7.44112V7.53613H10.0038V8.70613H10.0388C10.3972 8.03213 11.2681 7.31913 12.5694 7.31913C15.2722 7.31913 15.7727 9.09713 15.7727 11.4101V16.1251H15.7717ZM4.42802 6.36113C4.22437 6.3614 4.02266 6.3215 3.83447 6.24374C3.64628 6.16598 3.47531 6.05187 3.33135 5.90797C3.18739 5.76406 3.07328 5.59319 2.99556 5.40515C2.91784 5.2171 2.87803 5.01558 2.87843 4.81213C2.87862 4.50597 2.9697 4.20674 3.14014 3.95228C3.31057 3.69782 3.55272 3.49957 3.83594 3.38259C4.11917 3.2656 4.43076 3.23515 4.73131 3.29507C5.03187 3.355 5.30788 3.50261 5.52446 3.71924C5.74103 3.93587 5.88844 4.21179 5.94804 4.51211C6.00763 4.81244 5.97674 5.12367 5.85928 5.40645C5.74181 5.68924 5.54304 5.93087 5.2881 6.1008C5.03316 6.27074 4.7335 6.36133 4.42702 6.36113H4.42802ZM5.7654 16.1251H3.08964V7.53613H5.7664V16.1251H5.7654ZM17.1081 0.786133H1.75127C1.01451 0.786133 0.420898 1.36613 0.420898 2.08313V17.4891C0.420898 18.2061 1.01551 18.7861 1.75027 18.7861H17.1041C17.8388 18.7861 18.4394 18.2061 18.4394 17.4891V2.08313C18.4394 1.36613 17.8388 0.786133 17.1041 0.786133H17.1071H17.1081Z" fill="black"/>
</svg>
