<svg width="21" height="21" viewBox="0 0 21 21" fill="none" xmlns="http://www.w3.org/2000/svg">
<path d="M10.4688 7.43939C9.6731 7.43939 8.91004 7.75546 8.34743 8.31807C7.78482 8.88068 7.46875 9.64374 7.46875 10.4394C7.46875 11.235 7.78482 11.9981 8.34743 12.5607C8.91004 13.1233 9.6731 13.4394 10.4688 13.4394C11.2644 13.4394 12.0275 13.1233 12.5901 12.5607C13.1527 11.9981 13.4688 11.235 13.4688 10.4394C13.4688 9.64374 13.1527 8.88068 12.5901 8.31807C12.0275 7.75546 11.2644 7.43939 10.4688 7.43939ZM10.4688 5.43939C11.7948 5.43939 13.0666 5.96618 14.0043 6.90386C14.942 7.84154 15.4688 9.11331 15.4688 10.4394C15.4688 11.7655 14.942 13.0372 14.0043 13.9749C13.0666 14.9126 11.7948 15.4394 10.4688 15.4394C9.14267 15.4394 7.8709 14.9126 6.93322 13.9749C5.99553 13.0372 5.46875 11.7655 5.46875 10.4394C5.46875 9.11331 5.99553 7.84154 6.93322 6.90386C7.8709 5.96618 9.14267 5.43939 10.4688 5.43939ZM16.9688 5.18939C16.9688 5.52091 16.8371 5.83886 16.6026 6.07328C16.3682 6.3077 16.0503 6.43939 15.7188 6.43939C15.3872 6.43939 15.0693 6.3077 14.8349 6.07328C14.6004 5.83886 14.4688 5.52091 14.4688 5.18939C14.4688 4.85787 14.6004 4.53993 14.8349 4.30551C15.0693 4.07109 15.3872 3.93939 15.7188 3.93939C16.0503 3.93939 16.3682 4.07109 16.6026 4.30551C16.8371 4.53993 16.9688 4.85787 16.9688 5.18939ZM10.4688 2.43939C7.99475 2.43939 7.59075 2.44639 6.43975 2.49739C5.65575 2.53439 5.12975 2.63939 4.64175 2.82939C4.20775 2.99739 3.89475 3.19839 3.56175 3.53239C3.24876 3.83479 3.0081 4.20398 2.85775 4.61239C2.66775 5.10239 2.56275 5.62739 2.52675 6.41039C2.47475 7.51439 2.46875 7.90039 2.46875 10.4394C2.46875 12.9134 2.47575 13.3174 2.52675 14.4684C2.56375 15.2514 2.66875 15.7784 2.85775 16.2654C3.02775 16.7004 3.22775 17.0134 3.55975 17.3454C3.89675 17.6814 4.20975 17.8824 4.63975 18.0484C5.13375 18.2394 5.65975 18.3454 6.43975 18.3814C7.54375 18.4334 7.92975 18.4394 10.4688 18.4394C12.9427 18.4394 13.3467 18.4324 14.4977 18.3814C15.2797 18.3444 15.8068 18.2394 16.2948 18.0504C16.7278 17.8814 17.0427 17.6804 17.3748 17.3484C17.7118 17.0114 17.9128 16.6984 18.0788 16.2684C18.2688 15.7754 18.3748 15.2484 18.4107 14.4684C18.4627 13.3644 18.4688 12.9784 18.4688 10.4394C18.4688 7.96539 18.4618 7.56139 18.4107 6.41039C18.3737 5.62839 18.2688 5.10039 18.0788 4.61239C17.928 4.20439 17.6878 3.83535 17.3757 3.53239C17.0735 3.21924 16.7043 2.97856 16.2957 2.82839C15.8057 2.63839 15.2797 2.53339 14.4977 2.49739C13.3937 2.44539 13.0077 2.43939 10.4688 2.43939ZM10.4688 0.439392C13.1858 0.439392 13.5247 0.449392 14.5907 0.499392C15.6558 0.549392 16.3807 0.716392 17.0187 0.964392C17.6787 1.21839 18.2348 1.56239 18.7908 2.11739C19.2992 2.61729 19.6927 3.22198 19.9438 3.88939C20.1908 4.52639 20.3588 5.25239 20.4088 6.31739C20.4558 7.38339 20.4688 7.72239 20.4688 10.4394C20.4688 13.1564 20.4587 13.4954 20.4088 14.5614C20.3588 15.6264 20.1908 16.3514 19.9438 16.9894C19.6934 17.6572 19.2999 18.262 18.7908 18.7614C18.2907 19.2697 17.6861 19.6631 17.0187 19.9144C16.3817 20.1614 15.6558 20.3294 14.5907 20.3794C13.5247 20.4264 13.1858 20.4394 10.4688 20.4394C7.75175 20.4394 7.41275 20.4294 6.34675 20.3794C5.28175 20.3294 4.55675 20.1614 3.91875 19.9144C3.25108 19.6639 2.64628 19.2703 2.14675 18.7614C1.63816 18.2616 1.24468 17.6569 0.99375 16.9894C0.74575 16.3524 0.57875 15.6264 0.52875 14.5614C0.48175 13.4954 0.46875 13.1564 0.46875 10.4394C0.46875 7.72239 0.47875 7.38339 0.52875 6.31739C0.57875 5.25139 0.74575 4.52739 0.99375 3.88939C1.24399 3.22157 1.63755 2.61671 2.14675 2.11739C2.64642 1.60862 3.25118 1.21512 3.91875 0.964392C4.55675 0.716392 5.28075 0.549392 6.34675 0.499392C7.41275 0.452392 7.75175 0.439392 10.4688 0.439392Z" fill="#F9BC6E"/>
</svg>
                                                                                                                                                            