<svg width="24" height="24" viewBox="0 0 24 24" fill="none" xmlns="http://www.w3.org/2000/svg">
<path d="M24 11.9931C24.0048 18.6199 18.619 24.0055 11.9928 24C5.3748 23.9945 0.00343207 18.6226 1.63825e-06 12.0062C-0.00342879 5.37808 5.38098 -0.00548434 12.0065 4.19294e-06C18.6273 0.00549273 23.9952 5.37328 24 11.9931ZM12.0051 1.71037C6.3367 1.70625 1.71453 6.32417 1.70973 11.9952C1.70493 17.6607 6.32572 22.2862 11.9949 22.2903C17.6633 22.2944 22.2855 17.6765 22.2903 12.0048C22.2951 6.3372 17.6763 1.7138 12.0051 1.71037Z" fill="#34AE09"/>
<path d="M10.0768 14.3713C10.4473 13.9754 10.8048 13.5947 11.1609 13.2132C12.8342 11.4212 14.5076 9.62989 16.1782 7.83582C16.4026 7.59501 16.6585 7.44339 16.9933 7.49416C17.3226 7.54356 17.5655 7.72468 17.6787 8.04439C17.7974 8.37987 17.7308 8.68723 17.4873 8.94931C17.0146 9.45837 16.5405 9.96469 16.0664 10.4724C14.3114 12.3522 12.5571 14.232 10.8007 16.1105C10.2717 16.6758 9.77291 16.6586 9.26658 16.0666C8.35271 14.9984 7.43541 13.9336 6.52361 12.864C6.05226 12.3117 6.26975 11.5619 6.94349 11.4102C7.29682 11.3306 7.58086 11.4631 7.8107 11.7313C8.50228 12.5381 9.19454 13.3449 9.8868 14.1518C9.941 14.2149 9.99726 14.2794 10.0768 14.3713Z" fill="#34AE09"/>
</svg>
