<svg width="21" height="17" viewBox="0 0 21 17" fill="none" xmlns="http://www.w3.org/2000/svg">
<path d="M20.6306 2.09538C19.8671 2.43307 19.0575 2.65485 18.2286 2.75338C19.1023 2.23081 19.7563 1.40839 20.0686 0.43938C19.2486 0.92738 18.3496 1.26938 17.4126 1.45438C16.7832 0.780959 15.9489 0.334343 15.0395 0.183964C14.1301 0.033586 13.1965 0.187871 12.3838 0.622833C11.5711 1.05779 10.9249 1.74906 10.5457 2.58917C10.1664 3.42928 10.0753 4.37116 10.2866 5.26838C8.62367 5.18503 6.99689 4.7529 5.51185 4.00004C4.0268 3.24718 2.71669 2.19043 1.66656 0.89838C1.29485 1.53683 1.09951 2.26261 1.10056 3.00138C1.10056 4.45138 1.83856 5.73238 2.96056 6.48238C2.29657 6.46148 1.64719 6.28216 1.06656 5.95938V6.01138C1.06676 6.97708 1.40093 7.913 2.01241 8.66044C2.62388 9.40788 3.47504 9.92086 4.42156 10.1124C3.80517 10.2794 3.15887 10.304 2.53156 10.1844C2.79843 11.0156 3.31857 11.7426 4.01915 12.2635C4.71974 12.7844 5.56569 13.0732 6.43856 13.0894C5.57104 13.7707 4.57774 14.2744 3.51544 14.5716C2.45314 14.8687 1.34269 14.9536 0.247559 14.8214C2.15926 16.0508 4.38465 16.7035 6.65756 16.7014C14.3506 16.7014 18.5576 10.3284 18.5576 4.80138C18.5576 4.62138 18.5526 4.43938 18.5446 4.26138C19.3634 3.66955 20.0702 2.9364 20.6316 2.09638L20.6306 2.09538Z" fill="#F9BC6E"/>
</svg>
