<svg width="24" height="24" viewBox="0 0 24 24" fill="none" xmlns="http://www.w3.org/2000/svg">
<path d="M13.3929 7.42008C13.2865 9.24845 13.1802 11.0768 13.0738 12.9052C13.0594 13.1563 13.0704 13.4108 13.0299 13.6571C12.9462 14.1593 12.5167 14.5024 12.0193 14.4962C11.5233 14.49 11.0965 14.1607 11.0403 13.6612C10.9628 12.9724 10.9381 12.2774 10.8948 11.5845C10.8084 10.1987 10.7309 8.81211 10.6389 7.42626C10.5607 6.25857 11.6008 5.43255 12.5963 5.89358C13.2426 6.19339 13.434 6.75117 13.3929 7.42008Z" fill="#FF0000"/>
<path d="M12.0442 18.1711C11.3025 18.178 10.6816 17.5701 10.672 16.8278C10.6624 16.0731 11.2757 15.4433 12.0263 15.4385C12.7844 15.4337 13.3738 16.0374 13.3772 16.823C13.3813 17.5564 12.7796 18.1643 12.0442 18.1711Z" fill="#FF0000"/>
<path d="M24 11.9931C24.0048 18.6199 18.619 24.0055 11.9928 24C5.3748 23.9945 0.00343207 18.6226 1.63825e-06 12.0062C-0.00342879 5.37808 5.38098 -0.00548434 12.0065 4.19294e-06C18.6273 0.00549273 23.9952 5.37328 24 11.9931ZM12.0051 1.71037C6.3367 1.70625 1.71453 6.32417 1.70973 11.9952C1.70493 17.6607 6.32572 22.2862 11.9949 22.2903C17.6633 22.2944 22.2855 17.6765 22.2903 12.0048C22.2951 6.3372 17.6763 1.7138 12.0051 1.71037Z" fill="#FF0000"/>
</svg>
